<svg width="24" height="25" viewBox="0 0 24 25" fill="none" xmlns="http://www.w3.org/2000/svg">
<path d="M12.002 19.9434C11.7282 19.9434 11.478 19.8393 11.2986 19.6745C11.1192 19.5098 11.0059 19.28 11.0059 19.0285V17.5587C11.0059 16.6135 10.6093 15.664 9.82087 14.9443C9.03245 14.2246 8.00325 13.8604 6.97405 13.856H5.37359C4.82595 13.856 4.37744 13.4485 4.37744 12.9412C4.37744 12.6897 4.49075 12.4599 4.67015 12.2952C4.84955 12.1304 5.09505 12.0307 5.37359 12.0264H6.9646C7.99852 12.0264 9.03245 11.6665 9.82087 10.9424C10.6093 10.2184 11.0059 9.26884 11.0011 8.31932V6.85819C11.0011 6.35525 11.4497 5.94336 11.9973 5.94336C12.2711 5.94336 12.5213 6.04741 12.7007 6.21217C12.8801 6.37693 12.9935 6.60672 12.9935 6.85819V8.31932C12.9935 9.26884 13.39 10.2184 14.1784 10.9424C14.9669 11.6665 16.0008 12.0307 17.0347 12.0307H18.6257C19.1734 12.0307 19.6172 12.4382 19.6219 12.9455C19.6219 13.197 19.5086 13.4268 19.3292 13.5915C19.1498 13.7563 18.8996 13.8604 18.6257 13.8604H17.0347C16.0008 13.8604 14.9669 14.2202 14.1784 14.9443C13.39 15.6684 12.9935 16.6179 12.9982 17.5674V19.0285C12.9982 19.5315 12.5544 19.939 12.0067 19.939L12.002 19.9434Z" fill="#CFCFCF"/>
</svg>
