<svg width="34" height="17" viewBox="0 0 34 17" fill="none" xmlns="http://www.w3.org/2000/svg">
<rect y="0.0566406" width="16" height="16" rx="4" fill="#F0F0F0"/>
<path d="M10.4375 8.80664H9.5V7.30664H10.4375C10.7713 7.30664 11.0975 7.20767 11.375 7.02225C11.6525 6.83682 11.8688 6.57327 11.9965 6.26492C12.1243 5.95657 12.1577 5.61727 12.0926 5.28993C12.0275 4.96258 11.8667 4.6619 11.6307 4.4259C11.3947 4.1899 11.0941 4.02918 10.7667 3.96407C10.4394 3.89895 10.1001 3.93237 9.79172 4.06009C9.48337 4.18782 9.21982 4.40411 9.0344 4.68162C8.84897 4.95912 8.75 5.28539 8.75 5.61914V6.55664H7.25V5.61914C7.25 5.28539 7.15103 4.95912 6.96561 4.68162C6.78018 4.40411 6.51663 4.18782 6.20828 4.06009C5.89993 3.93237 5.56063 3.89895 5.23329 3.96407C4.90594 4.02918 4.60526 4.1899 4.36926 4.4259C4.13326 4.6619 3.97254 4.96258 3.90743 5.28993C3.84231 5.61727 3.87573 5.95657 4.00345 6.26492C4.13118 6.57327 4.34747 6.83682 4.62498 7.02225C4.90248 7.20767 5.22874 7.30664 5.5625 7.30664H6.5V8.80664H5.5625C5.22874 8.80664 4.90248 8.90561 4.62498 9.09104C4.34747 9.27646 4.13118 9.54001 4.00345 9.84836C3.87573 10.1567 3.84231 10.496 3.90743 10.8234C3.97254 11.1507 4.13326 11.4514 4.36926 11.6874C4.60526 11.9234 4.90594 12.0841 5.23329 12.1492C5.56063 12.2143 5.89993 12.1809 6.20828 12.0532C6.51663 11.9255 6.78018 11.7092 6.96561 11.4317C7.15103 11.1542 7.25 10.8279 7.25 10.4941V9.55664H8.75V10.4941C8.75 10.8279 8.84897 11.1542 9.0344 11.4317C9.21982 11.7092 9.48337 11.9255 9.79172 12.0532C10.1001 12.1809 10.4394 12.2143 10.7667 12.1492C11.0941 12.0841 11.3947 11.9234 11.6307 11.6874C11.8667 11.4514 12.0275 11.1507 12.0926 10.8234C12.1577 10.496 12.1243 10.1567 11.9965 9.84836C11.8688 9.54001 11.6525 9.27646 11.375 9.09104C11.0975 8.90561 10.7713 8.80664 10.4375 8.80664ZM9.5 5.61914C9.5 5.43372 9.55498 5.25247 9.658 5.09829C9.76101 4.94412 9.90743 4.82396 10.0787 4.753C10.25 4.68205 10.4385 4.66348 10.6204 4.69966C10.8023 4.73583 10.9693 4.82512 11.1004 4.95623C11.2315 5.08734 11.3208 5.25439 11.357 5.43624C11.3932 5.6181 11.3746 5.8066 11.3036 5.97791C11.2327 6.14921 11.1125 6.29563 10.9583 6.39864C10.8042 6.50166 10.6229 6.55664 10.4375 6.55664H9.5V5.61914ZM4.625 5.61914C4.625 5.3705 4.72377 5.13204 4.89959 4.95623C5.0754 4.78041 5.31386 4.68164 5.5625 4.68164C5.81114 4.68164 6.0496 4.78041 6.22541 4.95623C6.40123 5.13204 6.5 5.3705 6.5 5.61914V6.55664H5.5625C5.31386 6.55664 5.0754 6.45787 4.89959 6.28205C4.72377 6.10624 4.625 5.86778 4.625 5.61914ZM6.5 10.4941C6.5 10.6796 6.44502 10.8608 6.342 11.015C6.23899 11.1692 6.09257 11.2893 5.92127 11.3603C5.74996 11.4312 5.56146 11.4498 5.3796 11.4136C5.19775 11.3775 5.0307 11.2882 4.89959 11.1571C4.76848 11.0259 4.67919 10.8589 4.64301 10.677C4.60684 10.4952 4.62541 10.3067 4.69636 10.1354C4.76732 9.96407 4.88748 9.81765 5.04165 9.71464C5.19582 9.61163 5.37708 9.55664 5.5625 9.55664H6.5V10.4941ZM7.25 7.30664H8.75V8.80664H7.25V7.30664ZM10.4375 11.4316C10.1889 11.4316 9.9504 11.3329 9.77459 11.1571C9.59877 10.9812 9.5 10.7428 9.5 10.4941V9.55664H10.4375C10.6861 9.55664 10.9246 9.65541 11.1004 9.83123C11.2762 10.007 11.375 10.2455 11.375 10.4941C11.375 10.7428 11.2762 10.9812 11.1004 11.1571C10.9246 11.3329 10.6861 11.4316 10.4375 11.4316Z" fill="#949494"/>
<rect x="18" y="0.0566406" width="16" height="16" rx="4" fill="#F0F0F0"/>
<path d="M26.0855 12.2166C25.4122 12.2166 24.8355 12.06 24.3555 11.7466C23.8755 11.4266 23.5089 10.99 23.2555 10.4366C23.0022 9.87664 22.8755 9.23664 22.8755 8.51664C22.8755 7.80331 23.0022 7.16664 23.2555 6.60664C23.5155 6.04664 23.8889 5.60664 24.3755 5.28664C24.8622 4.95997 25.4455 4.79664 26.1255 4.79664C26.7055 4.79664 27.1955 4.89997 27.5955 5.10664C28.0022 5.31331 28.3222 5.59664 28.5555 5.95664C28.7955 6.31664 28.9622 6.72664 29.0555 7.18664L27.9255 7.24664C27.8455 6.81331 27.6655 6.46331 27.3855 6.19664C27.1055 5.92331 26.6855 5.78664 26.1255 5.78664C25.6322 5.78664 25.2289 5.90997 24.9155 6.15664C24.6022 6.40331 24.3689 6.73331 24.2155 7.14664C24.0689 7.55997 23.9955 8.01664 23.9955 8.51664C23.9955 9.03664 24.0689 9.49997 24.2155 9.90664C24.3689 10.3133 24.6022 10.6366 24.9155 10.8766C25.2355 11.11 25.6422 11.2266 26.1355 11.2266C26.5222 11.2266 26.8555 11.1433 27.1355 10.9766C27.4155 10.81 27.6322 10.5833 27.7855 10.2966C27.9455 10.01 28.0322 9.69331 28.0455 9.34664H26.1455V8.43664H29.0755V12.0566H28.3355L28.2655 10.4566L28.4055 10.5766C28.3322 10.8966 28.1822 11.18 27.9555 11.4266C27.7289 11.6733 27.4522 11.8666 27.1255 12.0066C26.8055 12.1466 26.4589 12.2166 26.0855 12.2166Z" fill="#949494"/>
</svg>
