<svg width="84" height="33" viewBox="0 0 84 33" fill="none" xmlns="http://www.w3.org/2000/svg">
<path d="M20.576 8.65299C19.7782 6.00464 17.1379 4.05664 13.9978 4.05664C10.861 4.05664 8.21751 6.0017 7.41968 8.65299C4.53592 9.3857 2.41797 11.8104 2.41797 14.6942C2.41797 17.4926 4.41737 19.8643 7.17296 20.6676V21.2826C7.17296 23.5161 9.14673 25.3287 11.5787 25.3287H16.4202C18.8522 25.3287 20.8259 23.5161 20.8259 21.2826V20.6676C23.5847 19.8614 25.5809 17.4926 25.5809 14.6942C25.5809 11.8133 23.463 9.3857 20.576 8.65299Z" fill="black"/>
<path d="M14.9249 28.0566C13.9764 28.0566 13.2042 27.3504 13.2042 26.4765V24.8963H14.9249C15.8733 24.8963 16.6455 25.6025 16.6455 26.4765C16.6455 27.3475 15.8765 28.0566 14.9249 28.0566Z" fill="black"/>
<path d="M13.5073 26.5586H13.0908C12.1295 26.5586 11.3477 25.8406 11.3477 24.9578V24.899H13.5073V26.5586Z" fill="black"/>
<path d="M13.999 20.8064C13.8131 20.8064 13.6433 20.7357 13.5215 20.6239C13.3998 20.5121 13.3229 20.3561 13.3229 20.1855V19.1879C13.3229 18.5464 13.0537 17.902 12.5186 17.4135C11.9835 16.9251 11.285 16.6779 10.5865 16.6749H9.5003C9.12862 16.6749 8.82422 16.3983 8.82422 16.054C8.82422 15.8834 8.90112 15.7274 9.02288 15.6156C9.14463 15.5038 9.31125 15.4361 9.5003 15.4332H10.5801C11.2818 15.4332 11.9835 15.1889 12.5186 14.6975C13.0537 14.2061 13.3229 13.5617 13.3197 12.9172V11.9256C13.3197 11.5842 13.6241 11.3047 13.9957 11.3047C14.1816 11.3047 14.3514 11.3753 14.4732 11.4871C14.5949 11.5989 14.6718 11.7549 14.6718 11.9256V12.9172C14.6718 13.5617 14.941 14.2061 15.4761 14.6975C16.0112 15.1889 16.7129 15.4361 17.4146 15.4361H18.4944C18.8661 15.4361 19.1673 15.7127 19.1705 16.057C19.1705 16.2277 19.0936 16.3836 18.9718 16.4954C18.8501 16.6073 18.6802 16.6779 18.4944 16.6779H17.4146C16.7129 16.6779 16.0112 16.9221 15.4761 17.4135C14.941 17.905 14.6718 18.5494 14.675 19.1938V20.1855C14.675 20.5268 14.3738 20.8034 14.0022 20.8034L13.999 20.8064Z" fill="white"/>
<g clip-path="url(#clip0_89_22352)">
<path d="M42.5813 13.4765C42.6751 13.5703 42.7374 13.6912 42.7608 13.8218L42.7705 13.9198C42.7722 13.9854 42.7643 14.0508 42.7463 14.1139L42.7125 14.2071L42.7118 14.2078L41.8486 16.0557L42.7118 17.9035L42.7111 17.9028C42.7685 18.0235 42.7868 18.1593 42.7636 18.2909C42.7405 18.422 42.6772 18.5426 42.5827 18.6362L42.5081 18.7011C42.4282 18.7604 42.3349 18.801 42.236 18.8185C42.1045 18.8416 41.9686 18.8234 41.848 18.766V18.7646L40.0015 17.9028L38.1536 18.766L38.1529 18.7667C38.0323 18.822 37.8974 18.8391 37.7669 18.8157C37.6364 18.7923 37.5161 18.7293 37.4223 18.6355C37.3285 18.5417 37.2656 18.4215 37.2421 18.2909C37.2186 18.1603 37.2358 18.0255 37.2911 17.9049V17.9035L38.1543 16.0557L37.2911 14.2078L37.2904 14.2071C37.249 14.1167 37.2299 14.0184 37.2324 13.9198L37.2421 13.8218C37.2655 13.6912 37.3279 13.5703 37.4216 13.4765C37.5155 13.3827 37.6363 13.3204 37.7669 13.297L37.8656 13.2866C37.964 13.2842 38.062 13.304 38.1522 13.3453H38.1536L40.0015 14.2085L41.8493 13.3453H41.8507L41.9432 13.3108C42.038 13.2838 42.1382 13.2794 42.236 13.297L42.332 13.3212C42.4254 13.3531 42.5109 13.4062 42.5813 13.4765Z" fill="url(#paint0_linear_89_22352)" stroke="#D9D9D9" stroke-width="0.3"/>
</g>
<rect x="54.5828" y="2.63997" width="26.8333" height="26.8333" rx="13.4167" fill="#EBEBEB"/>
<rect x="54.5828" y="2.63997" width="26.8333" height="26.8333" rx="13.4167" stroke="#E0E0E0" stroke-width="1.16667"/>
<path d="M67.999 22.1324C64.1394 22.1324 60.999 18.992 60.999 15.1324C60.999 14.7853 61.2804 14.5039 61.6275 14.5039H74.3705C74.7176 14.5039 74.999 14.7853 74.999 15.1324C74.999 18.992 71.8587 22.1324 67.999 22.1324ZM62.2902 15.7609C62.6045 18.6331 65.0451 20.8754 67.999 20.8754C70.9529 20.8754 73.3936 18.6331 73.7078 15.7609H62.2902Z" fill="#666666"/>
<path d="M69.8475 20.2842C67.0068 20.2842 64.6953 17.9728 64.6953 15.132C64.6953 12.2912 67.0068 9.98047 69.8475 9.98047C72.6883 9.98047 74.9998 12.2919 74.9998 15.1327C74.9998 17.9735 72.6883 20.2849 69.8475 20.2849V20.2842ZM69.8475 11.2375C67.6995 11.2375 65.9523 12.9847 65.9523 15.1327C65.9523 17.2807 67.6995 19.028 69.8475 19.028C71.9956 19.028 73.7428 17.2807 73.7428 15.1327C73.7428 12.9847 71.9956 11.2375 69.8475 11.2375Z" fill="#666666"/>
<path d="M70.7355 17.9106C69.204 17.9106 67.9575 16.6648 67.9575 15.1334C67.9575 13.602 69.2033 12.3555 70.7355 12.3555C72.2676 12.3555 73.5127 13.6013 73.5127 15.1334C73.5127 16.6655 72.2669 17.9106 70.7355 17.9106ZM70.7355 13.6125C69.8968 13.6125 69.2145 14.2947 69.2145 15.1334C69.2145 15.9721 69.8968 16.6537 70.7355 16.6537C71.5741 16.6537 72.2557 15.9714 72.2557 15.1334C72.2557 14.2954 71.5734 13.6125 70.7355 13.6125Z" fill="#666666"/>
<defs>
<linearGradient id="paint0_linear_89_22352" x1="40.0022" y1="12.8596" x2="40.0022" y2="19.6916" gradientUnits="userSpaceOnUse">
<stop stop-color="#EBEBEB"/>
<stop offset="1" stop-color="#E0E0E0"/>
</linearGradient>
<clipPath id="clip0_89_22352">
<rect width="8" height="8" fill="white" transform="translate(36 12.0566)"/>
</clipPath>
</defs>
</svg>
