<svg width="28" height="29" viewBox="0 0 28 29" fill="none" xmlns="http://www.w3.org/2000/svg">
<g clip-path="url(#clip0_89_22168)">
<rect y="0.0566406" width="28" height="28" rx="14" fill="#FFEDC7"/>
<path d="M32.6749 2.09281C32.6548 1.99536 32.229 1.3725 32.1379 1.30683C31.7014 0.994339 30.9822 1.27505 30.5256 1.01341C30.3116 0.89053 30.1369 0.47741 29.8699 0.293095C29.3032 -0.0988397 28.6337 0.0272148 28.1158 0.445631C27.9908 0.547322 27.9251 0.818498 27.8446 0.83121C27.6359 0.862988 27.1666 0.53673 26.959 0.504951C26.9251 0.499655 26.8881 0.504951 26.8531 0.504951C26.1752 0.49224 25.6084 0.8757 25.3659 1.50491C25.0724 2.2676 25.0661 3.87876 25.0534 4.7389C25.0513 4.90839 25.1159 5.17956 24.9474 5.26854C24.9623 5.40731 24.9379 5.55243 24.9474 5.69226L24.8945 5.79606L24.8415 5.69226C24.3013 5.60963 23.3681 4.19867 22.4062 5.32045C21.7304 6.10855 22.4804 7.26211 23.1477 7.80976C23.2748 7.91463 23.5185 8.00043 23.6774 8.12755C23.9019 8.30762 24.1477 8.36376 24.367 8.65507C24.958 9.43894 24.4888 10.2842 24.2007 11.0872C24.0174 11.2154 23.528 10.7461 23.3246 10.6508C22.8045 10.405 21.7918 10.0279 21.2421 9.92832C21.1764 9.91667 21.097 9.93892 21.0302 9.92832C20.8258 9.89443 20.0906 9.98023 19.9868 9.80757C19.9317 9.71541 19.9911 9.43364 19.9466 9.26733C19.5726 7.85107 18.2538 6.14457 17.0081 5.37659C16.9573 5.34587 16.8672 5.3088 16.7963 5.27066C15.8281 4.74632 14.7063 4.54187 13.6205 4.52916C13.4797 4.52704 13.3377 4.52387 13.1968 4.52916C13.0231 4.53658 12.8377 4.51221 12.6672 4.52916C12.6227 4.5334 12.3918 4.60967 12.2435 4.63509C10.0857 5.0016 7.84957 6.67951 7.05723 8.76417C7.00956 8.88811 6.90045 9.31712 6.84537 9.50461C6.63351 10.2345 6.45556 10.9527 6.63775 11.7122C4.4461 11.8848 2.37521 13.1983 1.28627 15.1082C-0.299477 17.8878 0.28207 22.5253 3.45886 24.0104C2.51821 24.8367 1.51295 25.5962 0.812767 26.6554C0.755566 26.7423 0.634804 26.915 0.600906 26.9732C0.478031 27.1851 0.151775 27.8217 0.07127 28.0315C-0.336555 29.0992 -0.425533 30.3884 -0.352444 31.525C-0.343967 31.6489 -0.283588 32.1965 -0.246513 32.2665C0.890095 34.3956 1.99916 35.4422 4.51601 35.5481C4.65584 35.5545 4.79884 35.5481 4.93972 35.5481C6.90787 35.5481 7.86016 35.2399 9.61963 34.4592C10.038 34.2738 10.4247 33.7834 10.9723 34.0122C11.485 34.813 12.5433 35.332 12.3229 36.4284C12.2308 36.8881 11.3675 37.0745 10.9808 37.3033C9.70861 38.0576 9.27113 38.8393 9.70226 40.3117C10.0147 41.3795 11.0698 42.2629 10.574 43.354C10.3166 43.9186 9.24888 44.141 10.2319 44.7586C10.5317 44.6908 10.8484 44.8719 10.9723 44.8645C11.217 44.8497 11.771 44.7204 12.0306 44.6526C12.1884 44.6113 12.5358 44.5594 12.5602 44.5467C12.5729 44.5404 12.5655 44.3751 12.6714 44.2925C12.8303 44.1686 13.3239 43.8275 13.4066 43.7004C13.6025 43.4006 13.6364 42.7841 13.7243 42.4303C12.9119 40.2651 14.9754 40.6115 16.291 40.3922C17.8556 40.1316 19.472 39.6973 20.7601 38.7313C21.6213 38.0851 22.3172 37.1805 22.5768 36.135C23.1011 35.5068 22.5694 33.9232 22.3236 33.2738C22.2855 33.1721 22.1043 32.5292 22.1308 32.4794C22.2187 32.3141 23.3151 31.6457 23.5894 31.4148C26.1699 29.2412 27.1073 25.1439 24.9517 22.3834C25.2091 22.0592 25.5576 21.8866 25.8447 21.5762C26.0004 21.4078 27.2175 19.9777 27.2726 19.8813C27.1306 19.8337 26.852 20.0318 26.8457 19.7224C26.8361 19.2987 27.12 18.8072 27.1666 18.3454C27.3563 16.4662 26.9548 14.4313 25.8362 12.9028C25.6063 12.5892 24.4369 11.4992 24.4146 11.3605C24.3532 10.9844 24.9941 11.37 25.0862 11.4304C27.4113 12.9314 28.3636 17.3401 27.2736 19.7765C27.9357 19.6896 28.3043 18.874 28.6814 18.4291C28.7227 18.3803 28.8509 18.4142 28.8615 18.4005C28.8965 18.3581 28.942 18.3274 28.9674 18.2945C31.6591 14.9069 32.0955 10.5883 32.3825 6.42316C32.4514 5.42849 32.1188 4.81568 32.5552 3.90046C32.7034 3.58968 32.7003 3.51331 32.6707 3.40421C32.5827 3.07371 33.0778 2.78134 32.6717 2.09599L32.6749 2.09281ZM29.5002 4.5281V2.9932C29.5002 2.86397 30.0744 1.31318 30.1528 1.26446C30.2714 1.19137 30.5616 1.15853 30.5627 1.40534C30.5648 1.83117 30.2936 2.11824 30.1867 2.51441C30.0595 2.98579 30.032 4.1743 29.8276 4.46561C29.7396 4.59166 29.6189 4.51222 29.5002 4.5281ZM27.4908 1.35238C27.6232 1.26446 27.9378 1.40746 27.9166 1.61508C27.6666 2.46886 27.8351 3.65208 27.5893 4.46878C27.4526 4.92322 27.2122 4.78021 27.1666 4.37345C27.1211 3.96668 27.2482 1.51233 27.4908 1.35132V1.35238ZM18.5176 14.7195C19.5409 14.855 21.4783 16.8433 20.1881 17.1897C19.4996 17.3751 18.935 15.2915 17.6543 16.0245C16.9689 16.4175 17.2285 17.6049 16.4287 17.5594C15.3684 17.5001 16.2518 15.7258 16.6935 15.2735C17.1607 14.7957 17.8746 14.6326 18.5176 14.7184V14.7195ZM10.4268 18.9026C10.1969 19.2225 9.44168 19.1218 9.38553 18.4481C9.26901 17.0393 10.5041 15.605 11.9585 15.8804C12.557 15.9938 13.6947 16.8656 13.7371 17.498C13.7572 17.8062 13.7148 18.0943 13.3621 18.088C12.5877 18.0753 12.2138 16.6717 11.217 17.0997C10.3823 17.4577 10.6715 18.5604 10.4268 18.9015V18.9026ZM17.1871 19.7373C17.5462 19.4629 17.7676 18.7585 18.4837 19.2002C19.1998 19.6419 19.0536 20.8845 18.8852 21.5953C18.0748 25.0093 13.3345 25.5157 11.9437 22.2488C11.7096 21.7001 11.448 20.4375 12.1439 20.1472C12.8504 19.8527 13.5443 20.4205 14.2169 20.5031C15.4107 20.6504 16.2454 20.4565 17.1861 19.7383L17.1871 19.7373ZM2.93451 29.6193C3.54889 29.8333 4.98209 29.7072 5.35602 29.131C5.61872 28.7263 5.64309 27.6967 5.98206 27.1099C6.8316 25.6396 9.00631 25.4563 10.0264 26.8122C10.1556 26.9838 10.1747 27.2942 10.2626 27.3715C10.323 27.4255 10.6736 27.4859 10.842 27.5855C11.6979 28.0897 11.6015 29.0547 11.1895 29.8301C12.9267 30.0377 12.6651 32.1393 11.7212 33.1679C11.5708 33.3321 10.7923 34.0651 10.6609 33.5874C10.5889 33.3257 11.2467 32.938 11.4469 32.6817C12.3589 31.5123 11.949 29.6776 10.3537 30.4244C10.091 30.5472 9.35587 31.383 9.17897 31.2072C8.98512 31.0133 9.89504 30.0727 10.0772 29.936C10.2679 29.792 10.5444 29.8026 10.7118 29.6172C11.0062 29.292 11.0348 28.5346 10.7721 28.184C10.0063 27.1618 8.08155 28.934 7.80296 28.666C7.89088 27.8641 9.04232 27.5791 9.70755 27.3948C9.74039 27.1745 9.52747 27.0527 9.38023 26.9287C7.99469 25.7635 6.54136 26.7741 6.05409 28.2412C5.9471 28.5632 6.00536 28.97 5.83588 29.2931C5.43547 30.0568 3.16861 30.8301 2.93451 29.6193ZM16.3757 32.5842C16.4615 32.4995 18.1839 32.9847 18.5409 33.0111C19.1648 33.0577 19.9159 33.0037 20.526 32.8724C20.7919 32.8152 21.9878 32.2262 21.8777 32.741C21.6796 33.6605 18.1882 33.5779 17.4308 33.3808C17.2136 33.3236 16.0452 32.9094 16.3757 32.5853V32.5842Z" fill="#FFC956"/>
<path d="M17.1857 19.7383C16.2451 20.4565 15.4115 20.6514 14.2166 20.5031C13.5429 20.4195 12.8501 19.8527 12.1436 20.1472C11.4476 20.4375 11.7093 21.6991 11.9434 22.2488C13.3331 25.5157 18.0745 25.0104 18.8848 21.5953C19.0533 20.8845 19.2132 19.6504 18.4834 19.2002C17.7535 18.75 17.5459 19.4629 17.1868 19.7373L17.1857 19.7383ZM13.9645 23.4575C13.3416 22.3717 16.101 21.4523 17.0014 22.376C17.6995 23.0931 16.5301 23.7721 15.8733 23.878C15.404 23.9532 14.2282 23.9151 13.9655 23.4575H13.9645Z" fill="#1D1D1C"/>
<path d="M2.93406 29.6198C3.16922 30.8306 5.43503 30.0573 5.83544 29.2936C6.00492 28.9705 5.94666 28.5627 6.05365 28.2417C6.54092 26.7746 7.99531 25.764 9.37979 26.9293C9.52703 27.0532 9.73995 27.175 9.70711 27.3953C9.04188 27.5797 7.88939 27.8635 7.80252 28.6665C8.08112 28.9345 10.0058 27.1634 10.7717 28.1845C11.0333 28.5341 11.0058 29.2915 10.7113 29.6177C10.5439 29.8031 10.2685 29.7925 10.0768 29.9366C9.88507 30.0806 8.98468 31.0139 9.17853 31.2077C9.35543 31.3835 10.0906 30.5478 10.3533 30.4249C11.9485 29.6792 12.3585 31.5138 11.4465 32.6822C11.2462 32.9386 10.5884 33.3273 10.6605 33.5879C10.7918 34.0656 11.5704 33.3326 11.7208 33.1684C12.6646 32.1388 12.9263 30.0383 11.189 29.8306C11.6 29.0552 11.6964 28.0902 10.8416 27.586C10.6732 27.4864 10.3226 27.4261 10.2622 27.372C10.1743 27.2947 10.1552 26.9843 10.026 26.8127C9.00587 25.4579 6.83222 25.6401 5.98162 27.1104C5.64265 27.6962 5.61828 28.7269 5.35558 29.1315C4.98165 29.7078 3.54845 29.8349 2.93406 29.6198Z" fill="#DB9500"/>
<path d="M18.5191 14.7191C17.8761 14.6333 17.1621 14.7964 16.695 15.2742C16.2533 15.7265 15.3688 17.4997 16.4302 17.5601C17.2299 17.6057 16.9704 16.4172 17.6558 16.0252C18.9364 15.2922 19.501 17.3747 20.1896 17.1904C21.4798 16.844 19.5423 14.8558 18.5191 14.7202V14.7191Z" fill="#1D1D1C"/>
<path d="M10.4288 18.903C10.6735 18.5619 10.3853 17.4592 11.219 17.1011C12.2158 16.6732 12.5897 18.0767 13.364 18.0894C13.7168 18.0947 13.7592 17.8077 13.739 17.4994C13.6967 16.8681 12.559 15.9952 11.9605 15.8819C10.5061 15.6065 9.27098 17.0408 9.3875 18.4496C9.44364 19.1222 10.1989 19.2229 10.4288 18.904V18.903Z" fill="#1D1D1C"/>
<path d="M13.9678 23.4552C14.2305 23.9128 15.4063 23.9509 15.8756 23.8757C16.5334 23.7698 17.7018 23.0908 17.0037 22.3736C16.1044 21.4499 13.3439 22.3694 13.9667 23.4552H13.9678Z" fill="#FF491F"/>
<path d="M27.2766 19.7733C28.3666 17.3369 27.4143 12.9282 25.0892 11.4272C24.997 11.3679 24.3562 10.9823 24.4176 11.3573C24.4399 11.496 25.6104 12.586 25.8392 12.8996C26.9578 14.4281 27.3592 16.463 27.1696 18.3422C27.123 18.804 26.8391 19.2955 26.8487 19.7192C26.8561 20.0285 27.1336 19.8305 27.2756 19.8781C27.2904 19.8527 27.2618 19.8029 27.2756 19.7722L27.2766 19.7733Z" fill="#DB9500"/>
<path d="M27.4895 1.35007C27.247 1.51108 27.1209 3.97073 27.1654 4.3722C27.2099 4.77367 27.4514 4.92197 27.5881 4.46754C27.8338 3.64977 27.6643 2.46761 27.9154 1.61383C27.9376 1.40515 27.623 1.26215 27.4895 1.35113V1.35007Z" fill="#DB9500"/>
</g>
<rect x="0.5" y="0.556641" width="27" height="27" rx="13.5" stroke="white"/>
<defs>
<clipPath id="clip0_89_22168">
<rect y="0.0566406" width="28" height="28" rx="14" fill="white"/>
</clipPath>
</defs>
</svg>
